<svg width="3162" height="3338" viewBox="0 0 3162 3338" fill="none" xmlns="http://www.w3.org/2000/svg">
<path d="M624.806 2641.66C624.806 2641.66 624.806 2641.66 624.806 2641.66V2641.66C697.064 1754.57 1358.14 1026.04 2234.36 869.869L2667.75 792.622C2670.54 792.124 2672.95 794.609 2672.37 797.385V797.385C2483.07 1697.14 1779.68 2399.85 879.749 2588.28L624.808 2641.66C624.807 2641.66 624.807 2641.66 624.806 2641.66V2641.66Z" fill="#CA8B04"/>
<circle cx="871.661" cy="1811.66" r="208.5" transform="rotate(-33.2275 871.661 1811.66)" fill="#F1DE32"/>
<circle cx="2228.53" cy="1499.44" r="208.5" transform="rotate(123.037 2228.53 1499.44)" fill="#F1DE32"/>
<ellipse cx="893.574" cy="2120.68" rx="76.5" ry="83" transform="rotate(-33.2275 893.574 2120.68)" fill="#F1DE32"/>
<ellipse cx="2084.09" cy="1225.38" rx="76.5" ry="83" transform="rotate(123.037 2084.09 1225.38)" fill="#F1DE32"/>
<ellipse cx="1131.95" cy="1968.11" rx="76.5" ry="83" transform="rotate(-33.2275 1131.95 1968.11)" fill="#F1DE32"/>
<ellipse cx="1927.29" cy="1460.99" rx="76.5" ry="83" transform="rotate(123.037 1927.29 1460.99)" fill="#F1DE32"/>
<ellipse cx="1179.01" cy="1704.17" rx="76.5" ry="83" transform="rotate(-33.2275 1179.01 1704.17)" fill="#F1DE32"/>
<ellipse cx="1990.45" cy="1721.55" rx="76.5" ry="83" transform="rotate(123.037 1990.45 1721.55)" fill="#F1DE32"/>
<path fill-rule="evenodd" clip-rule="evenodd" d="M2046.81 467.497C1891.99 634.627 1650.19 766.536 1364.22 820.345C1078.25 874.153 805.044 839.147 600.066 739.717C598.673 792.305 602.802 845.841 612.925 899.638C689.826 1308.34 1083.48 1577.31 1492.18 1500.41C1900.88 1423.51 2169.85 1029.85 2092.95 621.155C2082.83 567.358 2067.22 515.982 2046.81 467.497Z" fill="#F1DE32"/>
<path fill-rule="evenodd" clip-rule="evenodd" d="M2031.39 398.132C1876.56 565.262 1634.77 697.171 1348.8 750.979C1062.82 804.788 789.621 769.782 584.642 670.351C583.249 722.939 587.379 776.476 597.502 830.273C674.403 1238.97 1068.06 1507.95 1476.76 1431.05C1885.46 1354.14 2154.43 960.488 2077.53 551.79C2067.41 497.993 2051.8 446.617 2031.39 398.132Z" fill="#F1DE32"/>
<circle cx="1967.05" cy="671.301" r="300" transform="rotate(-10.6562 1967.05 671.301)" fill="#CA8B04"/>
<circle cx="1967.42" cy="677.416" r="241.863" transform="rotate(-10.6562 1967.42 677.416)" fill="#F1DE32"/>
<circle cx="756.301" cy="899.117" r="300" transform="rotate(-10.6562 756.301 899.117)" fill="#CA8B04"/>
<rect x="1004" y="1929.67" width="54.7009" height="152.133" rx="27.3505" transform="rotate(-58.5666 1004 1929.67)" fill="#CA8B04"/>
<rect x="1032.97" y="1761.1" width="54.7009" height="152.133" rx="27.3505" transform="rotate(-101.571 1032.97 1761.1)" fill="#CA8B04"/>
<rect x="2005.33" y="1743.38" width="54.7009" height="152.133" rx="27.3505" transform="rotate(-126.046 2005.33 1743.38)" fill="#CA8B04"/>
<rect x="1913" y="1490.63" width="54.7009" height="152.133" rx="27.3505" transform="rotate(-87.0165 1913 1490.63)" fill="#CA8B04"/>
<rect x="2047" y="1233.12" width="54.7009" height="152.133" rx="27.3505" transform="rotate(-38.595 2047 1233.12)" fill="#CA8B04"/>
<rect x="912.527" y="2125.84" width="54.7009" height="140.195" rx="27.3505" transform="rotate(175.924 912.527 2125.84)" fill="#CA8B04"/>
<circle cx="756.416" cy="899.416" r="241.863" transform="rotate(-10.6562 756.416 899.416)" fill="#F1DE32"/>
</svg>
