<svg width="4018" height="825" viewBox="0 0 4018 825" fill="none" xmlns="http://www.w3.org/2000/svg">
<path d="M397.895 43.459C397.895 44.8379 395.481 53.1113 390.655 68.2793C386.519 82.7578 380.658 101.718 373.074 125.159C365.49 147.911 356.527 173.766 346.186 202.723C336.533 231.68 326.191 261.671 315.16 292.696C304.129 323.032 292.753 353.023 281.032 382.67C270.001 412.316 259.659 438.86 250.007 462.302C248.628 509.874 246.904 554.344 244.836 595.711C242.768 637.078 240.699 673.274 238.631 704.3C236.562 735.325 234.494 760.146 232.426 778.761C230.357 796.687 228.634 805.994 227.255 806.684C223.808 809.441 218.292 808.407 210.708 803.581C203.124 799.444 195.195 793.584 186.922 786C179.338 778.416 172.099 770.143 165.204 761.18C158.999 752.217 154.862 744.633 152.794 738.428C152.104 735.67 151.07 727.052 149.691 712.573C148.312 697.405 146.589 677.411 144.521 652.591C142.452 627.081 140.039 597.435 137.281 563.651C135.213 529.868 133.145 492.638 131.076 451.96C117.977 423.003 104.188 388.875 89.709 349.576C77.2988 315.793 63.165 274.771 47.3076 226.509C32.1396 178.247 16.627 122.746 0.769531 60.0059C0.769531 53.8008 4.56152 47.5957 12.1455 41.3906C19.7295 34.4961 29.0371 28.6357 40.0684 23.8096C51.0996 18.9834 62.8203 15.1914 75.2305 12.4336C87.6406 9.67578 98.6719 9.33105 108.324 11.3994C111.082 15.5361 116.253 31.3936 123.837 58.9717C126.595 70.6924 130.042 85.5156 134.179 103.441C139.005 120.678 144.176 142.396 149.691 168.595C155.207 194.104 161.412 224.096 168.307 258.568C175.891 293.041 184.509 333.029 194.161 378.533C204.503 334.408 213.811 295.454 222.084 261.671C230.357 227.888 237.597 198.586 243.802 173.766C250.696 148.256 256.557 126.883 261.383 109.646C266.898 91.7207 271.38 76.8975 274.827 65.1768C283.101 37.5986 289.65 21.3965 294.477 16.5703C299.303 13.8125 307.231 12.7783 318.263 13.4678C329.983 13.4678 341.359 15.1914 352.391 18.6387C364.111 21.3965 374.453 25.1885 383.416 30.0146C392.379 34.1514 397.205 38.6328 397.895 43.459ZM691.602 193.415C688.844 196.862 671.952 197.207 640.927 194.449C609.901 191.691 560.95 187.21 494.073 181.005C494.073 203.757 494.073 231.68 494.073 264.773C494.763 297.867 494.763 333.374 494.073 371.294C545.782 376.12 586.115 380.602 615.072 384.738C644.029 388.875 659.197 391.633 660.576 393.012C663.334 395.77 664.368 401.63 663.679 410.593C662.989 418.866 661.266 428.174 658.508 438.516C655.75 448.857 652.303 458.854 648.166 468.507C644.029 477.47 639.893 483.33 635.756 486.088C632.309 487.467 618.52 489.535 594.389 492.293C570.947 494.361 537.509 496.43 494.073 498.498C494.073 528.145 493.729 557.446 493.039 586.403C493.039 615.36 492.694 641.904 492.005 666.035C558.882 666.725 607.488 668.104 637.824 670.172C668.85 671.551 685.741 673.619 688.499 676.377C691.257 679.824 691.257 686.374 688.499 696.026C686.431 705.679 682.639 716.021 677.123 727.052C672.297 737.394 666.781 747.735 660.576 758.077C655.061 768.419 650.579 775.658 647.132 779.795C645.753 781.174 637.479 781.863 622.312 781.863C607.144 781.174 590.252 780.14 571.637 778.761C553.021 777.382 535.096 776.003 517.859 774.624C500.623 772.556 489.247 770.832 483.731 769.453C473.39 766.006 462.358 760.49 450.638 752.906C438.917 744.633 429.609 734.291 422.715 721.881C421.336 718.434 418.923 707.058 415.476 687.753C412.718 667.759 409.615 642.594 406.168 612.258C402.721 581.922 399.273 547.794 395.826 509.874C392.379 471.954 388.932 433.345 385.484 394.046C382.037 354.747 378.935 316.138 376.177 278.218C373.419 240.298 371.006 206.17 368.938 175.834C367.559 144.809 366.869 119.299 366.869 99.3047C366.869 78.6211 367.903 66.2109 369.972 62.0742C372.04 56.5586 381.692 52.4219 398.929 49.6641C416.165 46.9063 436.849 45.1826 460.979 44.4932C485.11 43.1143 510.965 42.7695 538.543 43.459C566.811 44.1484 593.01 45.5273 617.141 47.5957C641.271 48.9746 661.61 51.043 678.157 53.8008C694.704 55.8691 704.012 57.9375 706.08 60.0059C708.838 63.4531 710.217 71.3818 710.217 83.792C710.906 96.2021 710.217 109.991 708.148 125.159C706.77 139.638 704.356 153.771 700.909 167.561C698.151 180.66 695.049 189.278 691.602 193.415ZM750.55 818.06C749.171 814.612 748.481 802.202 748.481 780.829C748.481 759.456 748.481 732.567 748.481 700.163C749.171 667.759 749.86 631.562 750.55 591.574C751.929 550.896 752.963 509.874 753.652 468.507C755.031 426.45 756.41 385.772 757.789 346.474C759.168 306.485 760.202 270.979 760.892 239.953C762.271 208.928 763.305 183.763 763.994 164.458C764.684 144.464 765.373 133.777 766.062 132.398C766.752 129.641 769.854 122.746 775.37 111.715C780.886 100.684 787.091 89.3076 793.985 77.5869C801.569 65.1768 809.153 54.4902 816.737 45.5273C824.321 35.875 830.871 31.3936 836.387 32.083C838.455 32.7725 840.179 46.5615 841.558 73.4502C843.626 99.6494 845.35 133.433 846.729 174.8C848.797 216.167 850.176 262.016 850.865 312.346C852.244 361.986 853.278 410.593 853.968 458.165C855.347 505.048 856.381 547.794 857.07 586.403C857.76 624.323 858.449 652.246 859.139 670.172C881.201 672.24 903.264 673.964 925.326 675.343C948.078 676.722 968.417 678.445 986.343 680.514C1004.27 681.893 1018.75 683.271 1029.78 684.65C1041.5 686.029 1047.7 687.063 1048.39 687.753C1050.46 690.511 1053.22 697.061 1056.67 707.402C1060.8 717.055 1064.6 727.741 1068.04 739.462C1071.49 750.493 1073.9 760.835 1075.28 770.487C1077.35 780.14 1077.01 786 1074.25 788.068C994.961 802.547 933.6 812.199 890.164 817.025C846.729 821.852 814.669 824.265 793.985 824.265C769.854 824.265 755.376 822.196 750.55 818.06ZM1084.59 818.06C1083.21 814.612 1082.52 802.202 1082.52 780.829C1082.52 759.456 1082.52 732.567 1082.52 700.163C1083.21 667.759 1083.9 631.562 1084.59 591.574C1085.97 550.896 1087 509.874 1087.69 468.507C1089.07 426.45 1090.45 385.772 1091.83 346.474C1093.21 306.485 1094.24 270.979 1094.93 239.953C1096.31 208.928 1097.34 183.763 1098.03 164.458C1098.72 144.464 1099.41 133.777 1100.1 132.398C1100.79 129.641 1103.89 122.746 1109.41 111.715C1114.93 100.684 1121.13 89.3076 1128.03 77.5869C1135.61 65.1768 1143.19 54.4902 1150.78 45.5273C1158.36 35.875 1164.91 31.3936 1170.43 32.083C1172.5 32.7725 1174.22 46.5615 1175.6 73.4502C1177.67 99.6494 1179.39 133.433 1180.77 174.8C1182.84 216.167 1184.22 262.016 1184.91 312.346C1186.28 361.986 1187.32 410.593 1188.01 458.165C1189.39 505.048 1190.42 547.794 1191.11 586.403C1191.8 624.323 1192.49 652.246 1193.18 670.172C1215.24 672.24 1237.3 673.964 1259.37 675.343C1282.12 676.722 1302.46 678.445 1320.38 680.514C1338.31 681.893 1352.79 683.271 1363.82 684.65C1375.54 686.029 1381.74 687.063 1382.43 687.753C1384.5 690.511 1387.26 697.061 1390.71 707.402C1394.84 717.055 1398.64 727.741 1402.08 739.462C1405.53 750.493 1407.94 760.835 1409.32 770.487C1411.39 780.14 1411.05 786 1408.29 788.068C1329 802.547 1267.64 812.199 1224.2 817.025C1180.77 821.852 1148.71 824.265 1128.03 824.265C1103.89 824.265 1089.42 822.196 1084.59 818.06ZM1426.9 119.988C1430.35 113.783 1437.59 105.854 1448.62 96.2021C1459.65 85.8604 1472.75 75.5186 1487.92 65.1768C1503.78 54.835 1520.67 45.5273 1538.59 37.2539C1556.52 28.291 1574.45 22.4307 1592.37 19.6729C1610.99 16.2256 1628.22 16.915 1644.08 21.7412C1660.63 25.8779 1674.76 35.5303 1686.48 50.6982C1692.69 58.2822 1698.55 73.4502 1704.06 96.2021C1709.58 118.954 1714.75 146.532 1719.58 178.937C1725.09 210.651 1729.92 246.158 1734.05 285.457C1738.19 324.066 1741.64 363.71 1744.4 404.388C1747.15 444.376 1748.88 484.02 1749.57 523.318C1750.95 561.928 1750.95 597.779 1749.57 630.873C1748.88 663.277 1746.81 691.2 1743.36 714.642C1740.6 737.394 1736.12 753.251 1729.92 762.214C1717.51 780.14 1698.2 792.205 1672 798.41C1645.8 804.615 1618.23 804.615 1589.27 798.41C1560.31 792.895 1532.73 781.174 1506.54 763.248C1480.34 745.322 1461.03 721.191 1448.62 690.855C1440.35 670.861 1433.45 643.628 1427.94 609.155C1423.11 574.683 1419.32 537.452 1416.56 497.464C1413.8 456.786 1412.08 415.419 1411.39 373.362C1411.39 331.306 1411.74 292.696 1412.42 257.534C1413.8 221.683 1415.53 191.347 1417.6 166.526C1420.35 141.706 1423.46 126.193 1426.9 119.988ZM1629.6 644.317C1633.74 640.181 1636.5 629.149 1637.88 611.224C1639.94 592.608 1640.98 570.891 1640.98 546.07C1641.67 520.561 1641.67 493.672 1640.98 465.404C1640.98 437.137 1640.98 410.938 1640.98 386.807C1640.98 325.445 1638.91 277.873 1634.77 244.09C1630.64 210.307 1625.81 185.142 1620.29 168.595C1614.09 149.29 1607.2 137.225 1599.61 132.398C1589.27 134.467 1580.65 137.914 1573.76 142.74C1566.86 146.877 1561.35 151.703 1557.21 157.219C1552.38 163.424 1548.59 169.974 1545.83 176.868C1543.77 183.073 1541.35 195.139 1538.59 213.064C1536.53 230.99 1534.46 252.363 1532.39 277.184C1530.32 301.314 1528.25 327.858 1526.18 356.815C1524.81 385.083 1523.43 413.006 1522.05 440.584C1521.36 468.162 1520.67 494.361 1519.98 519.182C1519.98 543.312 1520.32 563.307 1521.01 579.164C1522.39 603.295 1527.91 620.876 1537.56 631.907C1547.9 642.938 1558.93 650.178 1570.65 653.625C1582.38 656.383 1593.75 656.383 1604.78 653.625C1616.5 650.867 1624.78 647.765 1629.6 644.317ZM2244.94 14.502C2247.7 17.2598 2248.39 31.0488 2247.01 55.8691C2246.32 80 2243.91 111.025 2239.77 148.945C2235.63 186.865 2230.46 229.956 2224.26 278.218C2218.74 326.479 2212.54 375.431 2205.64 425.071C2198.75 474.712 2191.51 523.318 2183.92 570.891C2177.03 617.773 2170.13 659.83 2163.24 697.061C2157.03 733.602 2151.17 763.248 2145.66 786C2140.83 808.062 2137.04 819.094 2134.28 819.094C2129.46 819.094 2123.94 816.336 2117.74 810.82C2111.53 805.305 2105.33 798.41 2099.12 790.137C2093.6 782.553 2088.43 774.969 2083.61 767.385C2079.47 759.111 2077.06 752.562 2076.37 747.735C2074.3 738.772 2070.16 721.536 2063.96 696.026C2058.44 670.517 2052.93 638.802 2047.41 600.882C2043.96 576.062 2040.52 549.862 2037.07 522.284C2033.62 498.843 2029.83 473.333 2025.69 445.755C2022.25 417.487 2018.8 389.22 2015.35 360.952C2012.59 378.878 2009.15 400.251 2005.01 425.071C2000.87 449.892 1996.74 473.678 1992.6 496.43C1987.77 523.318 1982.6 550.552 1977.09 578.13C1972.26 607.087 1967.09 635.699 1961.57 663.967C1956.06 691.545 1950.54 716.71 1945.03 739.462C1939.51 761.524 1934.34 779.45 1929.51 793.239C1925.38 807.028 1921.93 814.268 1919.17 814.957C1914.35 816.336 1908.49 814.612 1901.59 809.786C1894.7 805.649 1887.8 799.789 1880.91 792.205C1874.01 784.621 1867.81 776.692 1862.29 768.419C1857.47 759.456 1854.36 751.872 1852.99 745.667C1843.33 678.101 1835.06 617.429 1828.17 563.651C1821.96 509.874 1816.44 462.302 1811.62 420.935C1806.79 378.878 1803 342.682 1800.24 312.346C1797.48 282.01 1795.07 255.811 1793 233.748C1788.87 182.729 1787.14 147.222 1787.83 127.228C1789.9 112.749 1795.42 98.2705 1804.38 83.792C1813.34 68.624 1823.34 55.1797 1834.37 43.459C1845.4 31.7383 1855.74 22.7754 1865.4 16.5703C1875.74 9.67578 1882.63 7.2627 1886.08 9.33105C1888.15 10.71 1890.22 20.0176 1892.28 37.2539C1894.35 53.8008 1896.08 75.8633 1897.46 103.441C1898.83 130.33 1900.21 161.355 1901.59 196.518C1902.97 231.68 1904 268.565 1904.69 307.175C1906.07 345.095 1907.11 383.359 1907.8 421.969C1909.18 460.578 1910.55 496.774 1911.93 530.558C1914.69 513.321 1917.45 493.672 1920.21 471.609C1923.65 449.547 1927.1 426.45 1930.55 402.319C1934.69 378.188 1938.48 354.402 1941.92 330.961C1945.37 306.83 1948.47 284.768 1951.23 264.773C1954.68 244.779 1957.78 227.543 1960.54 213.064C1963.99 198.586 1966.75 188.589 1968.81 183.073C1975.71 167.216 1983.64 153.427 1992.6 141.706C2002.25 129.985 2011.21 120.333 2019.49 112.749C2028.45 105.165 2036.38 99.6494 2043.27 96.2021C2050.86 92.0654 2056.03 90.3418 2058.79 91.0312C2059.48 91.0312 2060.86 98.2705 2062.92 112.749C2064.99 126.538 2067.06 144.809 2069.13 167.561C2071.89 190.312 2074.64 216.512 2077.4 246.158C2080.85 275.115 2084.3 305.451 2087.74 337.166C2091.19 368.191 2094.64 399.217 2098.09 430.242C2101.53 460.578 2105.33 488.156 2109.46 512.977C2110.84 490.225 2112.22 465.06 2113.6 437.481C2114.98 409.214 2116.36 380.602 2117.74 351.645C2119.8 322.688 2121.53 294.42 2122.91 266.842C2124.97 239.264 2126.7 214.099 2128.08 191.347C2130.15 168.595 2131.87 149.29 2133.25 133.433C2135.32 116.886 2137.38 105.854 2139.45 100.339C2143.59 86.5498 2150.83 73.7949 2161.17 62.0742C2171.51 49.6641 2182.2 39.667 2193.23 32.083C2204.95 23.8096 2215.64 18.2939 2225.29 15.5361C2235.63 12.0889 2242.18 11.7441 2244.94 14.502ZM2593.46 463.336C2593.46 472.299 2593.11 486.433 2592.42 505.737C2592.42 525.042 2592.08 546.76 2591.39 570.891C2590.7 595.021 2589.67 620.187 2588.29 646.386C2587.6 671.896 2586.22 695.337 2584.15 716.71C2582.08 737.394 2579.67 754.63 2576.91 768.419C2574.84 782.208 2572.08 789.103 2568.64 789.103C2558.3 789.103 2548.3 781.863 2538.65 767.385C2529.68 752.217 2520.38 736.015 2510.72 718.778C2508.66 714.642 2506.24 702.576 2503.48 682.582C2501.42 661.898 2499 636.044 2496.25 605.019C2494.18 573.993 2492.11 539.521 2490.04 501.601C2487.97 463.681 2485.9 425.071 2483.83 385.772C2481.77 346.474 2480.04 307.864 2478.66 269.944C2477.97 232.024 2477.29 197.896 2476.6 167.561C2475.91 137.225 2475.91 112.06 2476.6 92.0654C2477.29 71.3818 2478.66 59.3164 2480.73 55.8691C2483.49 51.043 2493.14 47.5957 2509.69 45.5273C2526.24 42.7695 2546.23 41.3906 2569.67 41.3906C2593.8 41.3906 2619.66 42.0801 2647.24 43.459C2674.81 44.8379 2700.32 46.9063 2723.76 49.6641C2747.9 51.7324 2767.89 54.1455 2783.75 56.9033C2800.29 59.6611 2809.6 62.0742 2811.67 64.1426C2814.43 66.9004 2814.77 74.4844 2812.7 86.8945C2811.33 98.6152 2808.57 111.715 2804.43 126.193C2800.98 139.982 2796.5 153.082 2790.99 165.492C2786.16 177.902 2782.02 185.831 2778.58 189.278C2775.13 192.726 2758.93 192.381 2729.97 188.244C2701.7 184.107 2656.2 179.281 2593.46 173.766V346.474C2641.72 350.61 2679.29 354.402 2706.18 357.85C2733.76 361.297 2748.24 363.71 2749.62 365.089C2752.38 367.847 2753.41 373.362 2752.72 381.636C2752.03 389.909 2750.31 398.872 2747.55 408.524C2744.79 417.487 2741.35 426.105 2737.21 434.379C2733.07 441.963 2728.94 447.134 2724.8 449.892C2722.73 451.271 2710.32 453.339 2687.57 456.097C2665.51 458.854 2634.14 461.268 2593.46 463.336ZM3182.94 129.296C3186.39 133.433 3189.83 145.153 3193.28 164.458C3196.73 183.763 3199.14 204.791 3200.52 227.543C3202.59 250.295 3203.28 271.668 3202.59 291.662C3202.59 311.656 3200.87 324.756 3197.42 330.961C3194.66 335.098 3187.77 342.682 3176.74 353.713C3165.7 364.055 3152.95 375.775 3138.47 388.875C3123.99 401.975 3108.82 415.074 3092.97 428.174C3077.8 440.584 3064.35 451.271 3052.63 460.233C3058.15 471.265 3065.04 485.743 3073.32 503.669C3081.59 520.905 3090.55 539.521 3100.21 559.515C3109.86 578.819 3119.17 598.813 3128.13 619.497C3137.78 640.181 3146.4 659.141 3153.98 676.377C3161.57 692.924 3167.77 707.058 3172.6 718.778C3177.42 729.81 3179.84 736.359 3179.84 738.428C3179.84 741.875 3178.11 746.701 3174.67 752.906C3171.91 759.111 3168.12 764.972 3163.29 770.487C3158.46 775.313 3153.29 779.45 3147.78 782.897C3142.26 786.345 3137.09 787.034 3132.27 784.966C3129.51 784.276 3124.34 778.761 3116.75 768.419C3109.17 757.388 3099.86 743.943 3088.83 728.086C3078.49 711.539 3066.77 692.924 3053.67 672.24C3041.26 651.557 3028.5 630.873 3015.4 610.189C3002.3 588.816 2989.89 568.478 2978.17 549.173C2966.45 529.179 2956.11 511.598 2947.15 496.43C2945.77 568.133 2944.04 623.289 2941.98 661.898C2940.6 700.508 2939.56 728.775 2938.87 746.701C2937.5 768.074 2936.12 780.14 2934.74 782.897C2932.67 782.897 2928.19 780.14 2921.29 774.624C2914.4 768.419 2907.16 761.18 2899.58 752.906C2891.99 744.633 2884.75 736.359 2877.86 728.086C2871.65 719.812 2867.86 713.607 2866.48 709.471C2865.1 700.508 2863.03 674.653 2860.28 631.907C2858.9 613.292 2857.52 590.195 2856.14 562.617C2854.76 535.039 2853.04 501.601 2850.97 462.302C2849.59 423.003 2847.52 376.81 2844.76 323.722C2842.01 270.634 2839.25 209.617 2836.49 140.672C2824.08 139.982 2814.08 139.982 2806.5 140.672C2798.92 140.672 2793.05 141.017 2788.92 141.706C2784.78 142.396 2781.68 142.74 2779.61 142.74C2777.54 142.051 2775.82 140.327 2774.44 137.569C2771.68 132.054 2769.61 122.746 2768.23 109.646C2766.86 95.8574 2766.17 82.7578 2766.17 70.3477C2766.17 56.5586 2768.23 42.7695 2772.37 28.9805C2775.82 15.1914 2780.3 6.57324 2785.82 3.12598C2788.57 1.05762 2798.23 1.40234 2814.77 4.16016C2831.32 6.22852 2849.59 8.98633 2869.58 12.4336C2889.58 15.8809 2908.54 19.6729 2926.46 23.8096C2945.08 27.9463 2957.14 30.7041 2962.66 32.083C2967.49 33.4619 2975.42 35.875 2986.45 39.3223C2997.48 42.0801 3010.23 46.2168 3024.71 51.7324C3039.19 56.5586 3054.36 62.0742 3070.21 68.2793C3086.76 74.4844 3102.27 81.0342 3116.75 87.9287C3131.23 94.8232 3144.33 101.718 3156.05 108.612C3167.77 115.507 3176.74 122.401 3182.94 129.296ZM2950.25 420.935C2956.46 417.487 2964.73 410.938 2975.07 401.285C2985.41 390.943 2996.44 379.567 3008.16 367.157C3020.57 354.058 3032.98 340.613 3045.39 326.824C3057.8 312.346 3068.84 298.901 3078.49 286.491C3088.83 274.081 3097.1 263.395 3103.31 254.432C3109.51 245.469 3112.62 239.608 3112.62 236.851C3112.62 232.024 3108.13 226.509 3099.17 220.304C3090.9 213.409 3079.87 206.515 3066.08 199.62C3052.29 192.726 3036.09 186.176 3017.47 179.971C2998.86 173.076 2979.9 167.216 2960.59 162.39L2950.25 420.935ZM3266.71 119.988C3270.16 113.783 3277.4 105.854 3288.43 96.2021C3299.46 85.8604 3312.56 75.5186 3327.73 65.1768C3343.58 54.835 3360.47 45.5273 3378.4 37.2539C3396.33 28.291 3414.25 22.4307 3432.18 19.6729C3450.79 16.2256 3468.03 16.915 3483.89 21.7412C3500.43 25.8779 3514.57 35.5303 3526.29 50.6982C3532.49 58.2822 3538.35 73.4502 3543.87 96.2021C3549.38 118.954 3554.56 146.532 3559.38 178.937C3564.9 210.651 3569.72 246.158 3573.86 285.457C3578 324.066 3581.44 363.71 3584.2 404.388C3586.96 444.376 3588.68 484.02 3589.37 523.318C3590.75 561.928 3590.75 597.779 3589.37 630.873C3588.68 663.277 3586.62 691.2 3583.17 714.642C3580.41 737.394 3575.93 753.251 3569.72 762.214C3557.31 780.14 3538.01 792.205 3511.81 798.41C3485.61 804.615 3458.03 804.615 3429.08 798.41C3400.12 792.895 3372.54 781.174 3346.34 763.248C3320.14 745.322 3300.84 721.191 3288.43 690.855C3280.15 670.861 3273.26 643.628 3267.74 609.155C3262.92 574.683 3259.12 537.452 3256.37 497.464C3253.61 456.786 3251.89 415.419 3251.2 373.362C3251.2 331.306 3251.54 292.696 3252.23 257.534C3253.61 221.683 3255.33 191.347 3257.4 166.526C3260.16 141.706 3263.26 126.193 3266.71 119.988ZM3469.41 644.317C3473.54 640.181 3476.3 629.149 3477.68 611.224C3479.75 592.608 3480.78 570.891 3480.78 546.07C3481.47 520.561 3481.47 493.672 3480.78 465.404C3480.78 437.137 3480.78 410.938 3480.78 386.807C3480.78 325.445 3478.72 277.873 3474.58 244.09C3470.44 210.307 3465.62 185.142 3460.1 168.595C3453.9 149.29 3447 137.225 3439.42 132.398C3429.08 134.467 3420.46 137.914 3413.56 142.74C3406.67 146.877 3401.15 151.703 3397.02 157.219C3392.19 163.424 3388.4 169.974 3385.64 176.868C3383.57 183.073 3381.16 195.139 3378.4 213.064C3376.33 230.99 3374.26 252.363 3372.2 277.184C3370.13 301.314 3368.06 327.858 3365.99 356.815C3364.61 385.083 3363.23 413.006 3361.85 440.584C3361.16 468.162 3360.47 494.361 3359.79 519.182C3359.79 543.312 3360.13 563.307 3360.82 579.164C3362.2 603.295 3367.71 620.876 3377.37 631.907C3387.71 642.938 3398.74 650.178 3410.46 653.625C3422.18 656.383 3433.56 656.383 3444.59 653.625C3456.31 650.867 3464.58 647.765 3469.41 644.317ZM4005.11 465.404C4009.25 468.852 4012.35 476.091 4014.42 487.122C4016.49 498.153 4017.52 510.219 4017.52 523.318C4017.52 536.418 4016.49 548.483 4014.42 559.515C4012.35 570.546 4009.25 577.096 4005.11 579.164C4003.04 580.543 3997.87 580.888 3989.6 580.198C3982.02 579.509 3973.05 578.13 3962.71 576.062C3964.09 587.782 3965.12 599.503 3965.81 611.224C3966.5 622.944 3966.85 632.597 3966.85 640.181C3966.85 653.28 3964.09 670.172 3958.58 690.855C3953.75 711.539 3947.2 731.878 3938.93 751.872C3930.65 771.177 3921.69 787.724 3912.04 801.513C3903.07 815.302 3894.46 821.852 3886.18 821.162C3880.67 821.162 3872.74 818.749 3862.4 813.923C3852.74 809.786 3841.71 804.271 3829.3 797.376C3816.89 791.171 3803.79 783.932 3790 775.658C3776.9 767.385 3764.84 759.456 3753.81 751.872C3742.78 743.599 3733.12 736.015 3724.85 729.12C3717.27 722.226 3712.44 716.71 3710.37 712.573C3706.92 706.368 3702.44 691.545 3696.93 668.104C3691.41 644.662 3685.9 616.05 3680.38 582.267C3674.87 547.794 3670.04 510.219 3665.9 469.541C3661.77 428.174 3659.7 386.807 3659.7 345.439C3659.7 304.072 3660.39 263.395 3661.77 223.406C3663.14 183.418 3665.56 147.566 3669 115.852C3673.14 83.4473 3678.31 57.5928 3684.52 38.2881C3691.41 18.2939 3699.69 7.60742 3709.34 6.22852C3738.29 3.4707 3769.32 7.60742 3802.41 18.6387C3836.2 29.6699 3867.57 43.8037 3896.52 61.04C3925.48 78.2764 3949.61 96.2021 3968.92 114.817C3988.22 133.433 3998.56 148.601 3999.94 160.321C4000.63 172.042 3999.25 185.142 3995.81 199.62C3992.36 213.409 3988.22 227.198 3983.4 240.987C3978.57 254.087 3973.4 266.152 3967.88 277.184C3963.06 287.525 3959.26 294.765 3956.51 298.901C3953.06 303.728 3948.58 308.898 3943.06 314.414C3938.24 319.93 3933.07 324.756 3927.55 328.893C3922.72 333.029 3917.55 336.132 3912.04 338.2C3907.21 339.579 3902.73 338.89 3898.59 336.132C3895.83 334.063 3893.08 327.514 3890.32 316.482C3888.25 305.451 3885.84 292.352 3883.08 277.184C3881.01 261.326 3878.94 244.779 3876.88 227.543C3874.81 209.617 3872.74 193.07 3870.67 177.902C3869.29 162.734 3867.91 149.979 3866.53 139.638C3865.15 129.296 3864.12 123.436 3863.43 122.057C3862.05 119.988 3859.64 117.92 3856.19 115.852C3853.43 113.783 3849.99 112.06 3845.85 110.681C3841.71 109.302 3837.92 108.957 3834.47 109.646C3831.03 109.646 3828.27 111.37 3826.2 114.817C3824.13 118.265 3820.34 131.02 3814.82 153.082C3809.31 175.145 3803.79 202.723 3798.28 235.816C3793.45 268.91 3788.97 305.796 3784.83 346.474C3780.7 386.462 3778.63 426.795 3778.63 467.473C3778.63 496.43 3779.32 526.766 3780.7 558.48C3782.76 589.506 3785.18 618.118 3787.94 644.317C3791.38 669.827 3795.17 691.2 3799.31 708.437C3804.14 725.673 3808.96 734.291 3813.79 734.291C3818.62 734.98 3825.17 730.154 3833.44 719.812C3841.71 708.781 3849.64 696.371 3857.23 682.582C3864.81 668.104 3871.7 654.314 3877.91 641.215C3884.8 627.426 3889.29 617.773 3891.35 612.258C3894.8 604.674 3898.25 597.09 3901.7 589.506C3905.83 581.232 3910.31 573.304 3915.14 565.72C3904.11 562.962 3893.08 559.859 3882.05 556.412C3871.7 552.965 3862.05 549.862 3853.09 547.104C3844.13 543.657 3836.54 540.555 3830.34 537.797C3824.82 534.35 3821.37 531.592 3820 529.523C3817.93 526.076 3816.55 521.595 3815.86 516.079C3815.17 509.874 3814.82 504.014 3814.82 498.498C3815.51 492.293 3816.2 486.777 3816.89 481.951C3818.27 476.436 3819.31 471.954 3820 468.507C3821.37 463.681 3830.68 460.233 3847.92 458.165C3865.84 456.097 3885.49 455.062 3906.87 455.062C3928.93 455.062 3949.61 456.097 3968.92 458.165C3988.22 459.544 4000.29 461.957 4005.11 465.404Z" fill="#CA8B04"/>
</svg>
